<svg width="20" height="10" viewBox="0 0 20 10" fill="none" xmlns="http://www.w3.org/2000/svg">
<path d="M19.9697 1.06381C20.0899 1.32341 20.0979 2.36689 15.0361 4.74276L10.0732 7.07216C8.3459 7.88331 5.83972 8.95002 4.73462 9.24498C3.96085 9.45105 3.22243 8.92578 3.22243 8.92578C3.22243 8.92578 0.99405 6.93074 0.402104 6.48223C-0.188832 6.03373 -0.138325 5.80543 0.619285 5.563C1.09102 5.41249 3.78104 6.061 4.92756 6.35091C5.97313 5.72468 7.03096 5.11915 8.10043 4.53467C6.69027 3.49119 4.05176 1.54261 3.21031 0.948649C2.4032 0.377916 3.22041 0.172856 3.22041 0.172856C3.59215 0.0728513 4.3942 -0.0574576 4.79826 0.0273947C7.54687 0.602168 12.135 2.11941 12.4865 2.23558C13.4614 1.72459 14.4454 1.23122 15.4381 0.75571C17.5342 -0.228173 19.809 0.718335 19.9697 1.06381Z" fill="white"/>
</svg>
