<svg width="22" height="20" viewBox="0 0 22 20" fill="none" xmlns="http://www.w3.org/2000/svg">
<path d="M16.83 10.9215C18.1637 10.9215 19.3712 10.9981 20.114 11.1406C20.1256 11.1406 20.8053 11.2818 21.0319 11.3729C21.3589 11.5154 21.6357 11.7728 21.812 12.0948C21.9382 12.3521 22 12.624 22 12.9077C21.9884 13.2034 21.7992 13.759 21.7103 13.978C21.1581 15.4218 19.3455 18.1814 18.2396 19.2398C18.0633 19.4193 17.8496 19.6133 17.7993 19.6648C17.5213 19.8839 17.1827 20 16.8184 20C16.4901 20 16.1631 19.8971 15.8992 19.6899C15.7621 19.5909 15.562 19.3939 15.4705 19.3016L15.4216 19.2517C14.2758 18.1695 12.5534 15.4733 11.9998 14.1061C11.988 14.1061 11.7122 13.4241 11.6565 13.0125L11.6471 12.9077V12.8563C11.6471 12.2624 11.974 11.7081 12.5032 11.4244C12.7928 11.2699 13.6347 11.1274 13.6476 11.1142C14.402 10.9981 15.5593 10.9215 16.83 10.9215ZM5.17608 10.9895C5.70326 10.9895 6.13719 11.3957 6.19649 11.9197L6.2034 12.0426L6.48533 17.1301C6.48533 17.8718 5.89958 18.4722 5.17608 18.4722C4.49781 18.4722 3.93947 17.9445 3.87232 17.2674L3.86555 17.1301L4.14877 12.0426C4.14877 11.4606 4.60836 10.9895 5.17608 10.9895ZM5.18291 0C5.50861 0 5.8356 0.102937 6.10079 0.308812C6.21505 0.392118 6.37305 0.542957 6.47549 0.644371L6.5784 0.748275C7.72287 1.83176 9.44664 4.5266 10.0002 5.89382C10.0108 5.89382 10.2876 6.57691 10.3435 6.9886L10.3529 7.09343V7.1449C10.3529 7.73745 10.0247 8.29173 9.49685 8.57547C9.20719 8.73119 8.36526 8.8724 8.35239 8.8856C7.59799 9.00173 6.44066 9.07827 5.17003 9.07827C3.83633 9.07827 2.62879 9.00173 1.88598 8.8592C1.87311 8.8592 1.19467 8.71799 0.968094 8.62693C0.641105 8.48573 0.364323 8.22706 0.187954 7.90505C0.0617932 7.64771 0 7.37585 0 7.09343C0.0115862 6.7965 0.200828 6.24222 0.288368 6.02315C0.841933 4.57807 2.65325 1.81856 3.76038 0.761472C3.93674 0.580672 4.15045 0.386675 4.20065 0.335206C4.47743 0.116134 4.8173 0 5.18291 0ZM16.8242 1.52778C17.5025 1.52778 18.0597 2.05554 18.1267 2.73265L18.1334 2.86995L17.8515 7.95754C17.8515 8.53954 17.3919 9.01068 16.8242 9.01068C16.297 9.01068 15.8631 8.60444 15.8038 8.08042L15.7969 7.95754L15.5136 2.86995C15.5136 2.12826 16.1007 1.52778 16.8242 1.52778Z" fill="#3896E7"/>
</svg>
