<svg width="21" height="22" viewBox="0 0 21 22" fill="none" xmlns="http://www.w3.org/2000/svg">
<path d="M7.33318 20.6507V17.2872C7.33318 16.4286 8.03766 15.7325 8.90669 15.7325H12.0834C12.5007 15.7325 12.901 15.8963 13.1961 16.1879C13.4911 16.4794 13.6569 16.8749 13.6569 17.2872V20.6507C13.6543 21.0076 13.796 21.3509 14.0505 21.6042C14.3051 21.8575 14.6514 22 15.0127 22H17.18C18.1922 22.0026 19.1639 21.6071 19.8806 20.9009C20.5972 20.1946 21 19.2357 21 18.2356V8.65354C21 7.8457 20.6375 7.07942 20.0104 6.56113L12.6376 0.743456C11.3551 -0.276582 9.51755 -0.243648 8.27333 0.821676L1.0688 6.56113C0.411976 7.06414 0.0193999 7.8327 0 8.65354V18.2258C0 20.3102 1.71026 22 3.81998 22H5.93779C6.6882 22 7.29805 21.4018 7.30349 20.6604L7.33318 20.6507Z" fill="#376AC1"/>
</svg>
