<svg width="19" height="19" viewBox="0 0 19 19" fill="none" xmlns="http://www.w3.org/2000/svg">
<path d="M9.49999 0C14.744 0 19 4.25599 19 9.49999C19 14.7535 14.744 19 9.49999 19C4.24649 19 0 14.7535 0 9.49999C0 4.25599 4.24649 0 9.49999 0ZM13.1575 6.37449C13.262 6.04199 12.958 5.72849 12.6255 5.83299L7.76149 7.35299C7.56199 7.41949 7.40049 7.57149 7.34349 7.77099L5.82349 12.6445C5.71899 12.9675 6.03249 13.281 6.35549 13.1765L11.2005 11.6565C11.4 11.5995 11.5615 11.438 11.6185 11.2385L13.1575 6.37449Z" fill="white"/>
</svg>
