<svg width="15" height="15" viewBox="0 0 15 15" fill="none" xmlns="http://www.w3.org/2000/svg">
<path d="M14.5396 2.68343C14.8344 2.38864 15 1.98882 15 1.57192C15 1.15502 14.8344 0.755196 14.5396 0.460404C14.2448 0.165611 13.845 -7.39702e-07 13.4281 -5.95895e-07C13.0112 -4.85274e-07 12.6114 0.165612 12.3166 0.460404L7.5 5.27697L2.68343 0.460404C2.38864 0.165612 1.98882 -4.85274e-07 1.57192 -5.95895e-07C1.15502 -7.39702e-07 0.755196 0.165611 0.460404 0.460404C0.165611 0.755196 -1.04258e-06 1.15502 -8.98777e-07 1.57192C-1.49613e-06 1.98882 0.165612 2.38864 0.460404 2.68343L5.27697 7.5L0.460403 12.3166C0.165611 12.6114 -8.76653e-07 13.0112 -1.68679e-07 13.4281C-8.76653e-07 13.845 0.165611 14.2448 0.460404 14.5396C0.755196 14.8344 1.15502 15 1.57192 15C1.98882 15 2.38864 14.8344 2.68343 14.5396L7.5 9.72303L12.3166 14.5396C12.6114 14.8344 13.0112 15 13.4281 15C13.845 15 14.2448 14.8344 14.5396 14.5396C14.8344 14.2448 15 13.845 15 13.4281C15 13.0112 14.8344 12.6114 14.5396 12.3166L9.72303 7.5L14.5396 2.68343Z" fill="white"/>
</svg>
