<svg width="9" height="9" viewBox="0 0 9 9" fill="none" xmlns="http://www.w3.org/2000/svg">
<path fill-rule="evenodd" clip-rule="evenodd" d="M4.5 0C6.9813 0 9 2.0187 9 4.5C9 6.9813 6.9813 9 4.5 9C2.0187 9 0 6.9813 0 4.5C0 2.0187 2.0187 0 4.5 0ZM4.5 0.675C2.39085 0.675 0.675 2.39085 0.675 4.5C0.675 6.60915 2.39085 8.325 4.5 8.325C6.60915 8.325 8.325 6.60915 8.325 4.5C8.325 2.39085 6.60915 0.675 4.5 0.675ZM4.34754 2.29293C4.53429 2.29293 4.68504 2.44413 4.68504 2.63043V4.62033L6.21729 5.53383C6.37704 5.62968 6.42969 5.83668 6.33429 5.99688C6.27084 6.10263 6.15879 6.16158 6.04404 6.16158C5.98509 6.16158 5.92569 6.14628 5.87124 6.11433L4.17474 5.10228C4.07304 5.04108 4.01004 4.93083 4.01004 4.81203V2.63043C4.01004 2.44413 4.16124 2.29293 4.34754 2.29293Z" fill="#376AC1"/>
</svg>
