<svg width="22" height="17" viewBox="0 0 22 17" fill="none" xmlns="http://www.w3.org/2000/svg">
<path d="M11.4798 0C11.8372 0 12.1277 0.272519 12.1277 0.608925V3.16442C12.1277 3.57369 12.4894 3.91309 12.9255 3.91309C13.3723 3.91309 13.7234 3.57369 13.7234 3.16442V0.608925C13.7234 0.272519 14.0138 0 14.3723 0H17.8404C20.1383 0 22 1.74692 22 3.90311V6.41867C22 6.61832 21.9149 6.80799 21.766 6.94774C21.617 7.08749 21.4149 7.16735 21.2021 7.16735C20.4149 7.16735 19.7766 7.76629 19.7766 8.49501C19.7766 9.22871 20.4074 9.82466 21.1872 9.83265C21.6266 9.83664 22 10.1241 22 10.5364V13.0969C22 15.2521 20.1383 17 17.8404 17H14.3723C14.0138 17 13.7234 16.7275 13.7234 16.3911V14.2349C13.7234 13.8156 13.3723 13.4862 12.9255 13.4862C12.4894 13.4862 12.1277 13.8156 12.1277 14.2349V16.3911C12.1277 16.7275 11.8372 17 11.4798 17H4.15957C1.87234 17 0 15.2531 0 13.0969V10.5364C0 10.1241 0.373404 9.83664 0.812766 9.83265C1.59362 9.82466 2.2234 9.22871 2.2234 8.49501C2.2234 7.78626 1.60638 7.24721 0.797872 7.24721C0.585106 7.24721 0.382979 7.16735 0.234043 7.0276C0.0851064 6.88785 0 6.69818 0 6.49853V3.91309C0 1.76089 1.8766 0 4.17021 0H11.4798ZM12.9255 6.05931C12.4894 6.05931 12.1277 6.39871 12.1277 6.80799V10.8009C12.1277 11.2102 12.4894 11.5496 12.9255 11.5496C13.3723 11.5496 13.7234 11.2102 13.7234 10.8009V6.80799C13.7234 6.39871 13.3723 6.05931 12.9255 6.05931Z" fill="#959595"/>
</svg>
