<svg width="9" height="10" viewBox="0 0 9 10" fill="none" xmlns="http://www.w3.org/2000/svg">
<path d="M6.32483 1.12762e-06C6.5371 -0.000497489 6.70495 0.16442 6.70544 0.38431L6.70594 0.759122C8.08326 0.867068 8.99308 1.8056 8.99456 3.24488L9 7.45776C9.00197 9.02698 8.01612 9.99249 6.4359 9.99499L2.57595 10C1.0056 10.002 0.0074116 9.01348 0.00543694 7.43977L3.3137e-06 3.27636C-0.00196802 1.82759 0.875767 0.891555 2.25309 0.765119L2.2526 0.390307C2.2521 0.170417 2.41501 0.00499976 2.63222 0.00499976C2.84944 0.00450001 3.01234 0.169417 3.01284 0.389307L3.01333 0.739132L5.9457 0.735134L5.9452 0.385309C5.94471 0.165419 6.10762 0.00050201 6.32483 1.12762e-06ZM6.52624 7.09595H6.52131C6.29422 7.10144 6.11206 7.29185 6.117 7.52173C6.11749 7.75162 6.30064 7.94102 6.52773 7.94602C6.75925 7.94552 6.94685 7.75512 6.94635 7.52023C6.94635 7.28535 6.75827 7.09595 6.52624 7.09595ZM2.45845 7.09644C2.23137 7.10644 2.05365 7.29684 2.05414 7.52673C2.06451 7.75661 2.2521 7.93652 2.47919 7.92603C2.70183 7.91603 2.87905 7.72563 2.86869 7.49575C2.86375 7.27086 2.6806 7.09595 2.45845 7.09644ZM4.49235 7.09395C4.26526 7.10444 4.08804 7.29435 4.08804 7.52423C4.0984 7.75412 4.286 7.93353 4.51308 7.92353C4.73523 7.91304 4.91295 7.72313 4.90258 7.49275C4.89765 7.26836 4.7145 7.09345 4.49235 7.09395ZM2.45598 5.29735C2.2289 5.30734 2.05167 5.49775 2.05217 5.72763C2.06204 5.95752 2.25013 6.13743 2.47721 6.12693C2.69936 6.11694 2.87659 5.92653 2.86622 5.69665C2.86128 5.47176 2.67863 5.29685 2.45598 5.29735ZM4.49037 5.27985C4.26329 5.28985 4.08557 5.48026 4.08606 5.71014C4.09594 5.94003 4.28402 6.11943 4.51111 6.10944C4.73326 6.09895 4.91048 5.90904 4.90061 5.67916C4.89518 5.45427 4.71252 5.27936 4.49037 5.27985ZM6.52427 5.28235C6.29718 5.28735 6.11946 5.47226 6.11996 5.70214V5.70764C6.1249 5.93753 6.31249 6.11194 6.54007 6.10694C6.76222 6.10144 6.93944 5.91104 6.9345 5.68116C6.92414 5.46127 6.74592 5.28186 6.52427 5.28235ZM5.94668 1.50475L3.01432 1.50875L3.01481 1.91304C3.01481 2.12844 2.8524 2.29835 2.63518 2.29835C2.41797 2.29885 2.25457 2.12944 2.25457 1.91404L2.25408 1.52924C1.29143 1.62569 0.758768 2.1914 0.760246 3.27536L0.760743 3.43078L8.23481 3.42079V3.24588C8.21359 2.17141 7.67451 1.6077 6.70692 1.52374L6.70742 1.90855C6.70742 2.12344 6.54007 2.29385 6.32779 2.29385C6.11058 2.29435 5.94718 2.12444 5.94718 1.90955L5.94668 1.50475Z" fill="#376AC1"/>
</svg>
