<svg width="15" height="13" viewBox="0 0 15 13" fill="none" xmlns="http://www.w3.org/2000/svg">
<path d="M9.44927 12.6C9.14147 11.6982 8.03917 8.67118 7.58216 7.41889C6.72048 8.02529 5.7588 8.5996 4.83852 9.00523C4.5526 10.0584 3.98387 12.057 3.70888 12.3236C3.23702 12.7818 3.05891 12.7226 2.98625 12.094C2.9136 11.4654 2.60736 9.43144 2.60736 9.43144C2.60736 9.43144 0.918368 8.42846 0.388702 8.1413C-0.140964 7.85415 -0.13237 7.65503 0.433232 7.3399C0.762906 7.15642 2.71986 7.26997 3.74716 7.34402C4.41979 6.56154 5.25569 5.79553 6.08535 5.13976C5.13617 4.25444 2.84329 2.116 2.15269 1.49973C1.54647 0.958334 2.21441 0.843966 2.21441 0.843966C2.51908 0.786371 3.16906 0.735358 3.48623 0.836561C5.45803 1.46435 8.51884 2.53809 9.23834 2.79151L10.1461 2.116C13.8194 -0.623894 14.7452 -0.0174965 14.9201 0.248265C15.0951 0.514027 15.3131 1.64783 11.6398 4.38855L10.7336 5.06571C10.7109 5.87205 10.6109 9.30391 10.4906 11.4925C10.4711 11.8447 10.2039 12.4782 10.0492 12.7629C10.0485 12.7629 9.71879 13.3924 9.44927 12.6Z" fill="#376AC1"/>
</svg>
