<svg width="19" height="21" viewBox="0 0 19 21" fill="none" xmlns="http://www.w3.org/2000/svg">
<path d="M7.22355 18.0893C7.78228 17.9783 11.1868 17.9783 11.7456 18.0893C12.2232 18.1929 12.7397 18.4351 12.7397 18.9639C12.7119 19.4673 12.3976 19.9135 11.9633 20.1969C11.4001 20.6094 10.7392 20.8706 10.0483 20.9647C9.66617 21.0112 9.29073 21.0123 8.92195 20.9647C8.22993 20.8706 7.56901 20.6094 7.00695 20.1959C6.57152 19.9135 6.25717 19.4673 6.2294 18.9639C6.2294 18.4351 6.74592 18.1929 7.22355 18.0893ZM9.55054 0C11.8754 0 14.2503 1.03637 15.661 2.7559C16.5763 3.86312 16.9961 4.96929 16.9961 6.68882V7.13615C16.9961 8.45487 17.3671 9.23215 18.1836 10.1279C18.8023 10.7878 19 11.6348 19 12.5538C19 13.4717 18.679 14.3431 18.0358 15.0506C17.1939 15.8988 16.0064 16.4402 14.7946 16.5343C13.0384 16.675 11.2811 16.7934 9.50056 16.7934C7.71885 16.7934 5.9627 16.7226 4.20655 16.5343C2.99357 16.4402 1.80614 15.8988 0.965273 15.0506C0.322128 14.3431 0 13.4717 0 12.5538C0 11.6348 0.198831 10.7878 0.816428 10.1279C1.6584 9.23215 2.00497 8.45487 2.00497 7.13615V6.68882C2.00497 4.92276 2.47372 3.76794 3.43899 2.63746C4.87413 0.988781 7.17457 0 9.45057 0H9.55054Z" fill="#B9B9B9"/>
</svg>
